<svg width="70" height="70" viewBox="0 0 70 70" fill="none" xmlns="http://www.w3.org/2000/svg">
<g clip-path="url(#clip0_99_23)">
<path d="M27.69 70V63.42C27.69 40.88 21.73 36.38 19.17 35.49C15.59 34.25 11.06 37.3 11.02 37.33L6.03 33.04C6.36 32.81 14.12 27.4 22.17 30.19C29.75 32.81 33.93 41.39 34.89 56.32C40.67 51.06 48.58 42.39 48.81 34.16C48.93 30.02 47.08 26.51 43.16 23.45L48.41 19.35C53.77 23.54 56.4 28.57 56.23 34.31C55.79 49.75 34.8 64.93 33.9 65.57L27.69 70.01V70Z" fill="white"/>
<path d="M54.65 12.09H0.25L3.42 3.51001H57.83L54.65 12.09Z" fill="white"/>
<path d="M69.75 7.8L59.13 0L53.35 15.6L69.75 7.8Z" fill="white"/>
</g>
<defs>
<clipPath id="clip0_99_23">
<rect width="70" height="70" fill="white"/>
</clipPath>
</defs>
</svg>
